<svg xmlns="http://www.w3.org/2000/svg" viewBox="0 0 903.56 847.97"><defs><style>.cls-1{fill:#231815;}</style></defs><title>자산 1</title><g id="레이어_2" data-name="레이어 2"><g id="레이어_1-2" data-name="레이어 1"><path class="cls-1" d="M335.54,3.47s-122.65,92.53-221,0c0,0-37.41-7.4-72.43-.6-55.63,10.8-62.7,217.57,19.32,225.58l54.25.56s101.41-82.5,221-3c0,0-4.06,116.31,18.28,138.92A71.43,71.43,0,0,0,371.43,377V488.57H527.87V377.5a52.6,52.6,0,0,0,14.48-12.58c19.78-25.82,16-135.91,16-135.91S633,98.11,902.16,488.48l.64-48.65S827.51,9.25,335.54,3.47"/><rect class="cls-1" x="0.45" y="565.65" width="900.07" height="23.41"/><rect class="cls-1" x="0.45" y="824.58" width="900.07" height="23.39"/><path class="cls-1" d="M.45,662.24c0-26.51,14-41.65,39.53-41.65s39.53,15.14,39.53,41.65V748.4c0,26.5-14,41.65-39.53,41.65S.45,774.9.45,748.4Zm22.17,87.81c0,11.84,9.08,20.19,17.36,20.19s17.36-8.35,17.36-20.19V660.58c0-11.83-9.08-20.19-17.36-20.19s-17.36,8.36-17.36,20.19Z"/><path class="cls-1" d="M172.76,747c0,27.93-12.79,43.08-39.78,43.08-25.56,0-38.81-15.15-38.81-41.65v-4.26h20.75v5.91c0,11.84,9.07,16.33,17.35,16.33,9.24,0,18.31-4.49,18.31-20.35V715.74c-4.49,9.46-16.42,14.67-28,14.67-19.18,0-28.88-13.49-28.88-37.88V662.24c0-26.51,14-41.65,39.52-41.65s39.54,15.14,39.54,41.65Zm-22.18-56.55V660.58c0-11.83-9.07-20-17.36-20s-17.35,8.14-17.35,20v29.84c0,11.83,9.06,20.19,17.35,20.19s17.36-8.36,17.36-20.19"/><path class="cls-1" d="M187.88,662.24c0-26.51,14-41.65,39.53-41.65s39.53,15.14,39.53,41.65V748.4c0,26.5-14,41.65-39.53,41.65s-39.53-15.15-39.53-41.65Zm22.18,87.81c0,11.84,9.07,20.19,17.35,20.19s17.36-8.35,17.36-20.19V660.58c0-11.83-9.07-20.19-17.36-20.19s-17.35,8.36-17.35,20.19Z"/><polygon class="cls-1" points="305.91 696.08 343.38 696.08 343.38 715.88 305.91 715.88 305.91 788.15 283.74 788.15 283.74 622.48 352.61 622.48 352.61 642.29 305.91 642.29 305.91 696.08"/><path class="cls-1" d="M444.17,788.15H423.93l-4.5-30H379.74l-4.5,30h-20l26.51-165.67h35.94Zm-61.11-52.53h32.82l-12.55-83.79H395.6Z"/><path class="cls-1" d="M533.66,726.39v22c0,26.5-13.25,41.65-38.81,41.65S456,774.9,456,748.4V662.24c0-26.51,13.25-41.65,38.81-41.65s38.81,15.14,38.81,41.65v16.09H512.91V660.58c0-11.83-9.07-20.19-17.35-20.19s-17.35,8.36-17.35,20.19v89.47c0,11.84,9.07,20,17.35,20s17.35-8.13,17.35-20V726.39Z"/><polygon class="cls-1" points="541.94 622.48 622.4 622.48 622.4 642.29 591.33 642.29 591.33 788.15 573.02 788.15 573.02 642.29 541.94 642.29 541.94 622.48"/><path class="cls-1" d="M631.63,662.24c0-26.51,14-41.65,39.52-41.65s39.52,15.14,39.52,41.65V748.4c0,26.5-14,41.65-39.52,41.65s-39.52-15.15-39.52-41.65Zm22.18,87.81c0,11.84,9.06,20.19,17.34,20.19s17.37-8.35,17.37-20.19V660.58c0-11.83-9.08-20.19-17.37-20.19s-17.34,8.36-17.34,20.19Z"/><path class="cls-1" d="M785.78,788.15c-1.42-4.26-2.36-6.86-2.36-20.35v-26c0-15.38-9.07-24.94-20.92-24.94H749.65v71.32H727.48V622.48h39.28c27,0,38.59,12.54,38.59,38.1v13c0,17-5.44,28.18-17,33.62,13,5.44,17.28,18,17.28,35.26V768c0,8,.24,14,2.84,20.11ZM749.65,642.29V697H763.7c9.7,0,19.48-4.27,19.48-17.52V663.18c0-11.83-7.88-20.89-17.13-20.89Z"/><polygon class="cls-1" points="850.77 733.25 814 622.48 835.08 622.48 858.83 701.85 882.57 622.48 903.56 622.48 866.81 733.25 866.81 788.15 850.77 788.15 850.77 733.25"/></g></g></svg>